<?xml version="1.0" encoding="iso-8859-1"?>
<!-- Generator: Adobe Illustrator 19.0.0, SVG Export Plug-In . SVG Version: 6.00 Build 0)  -->
<svg version="1.1" id="Capa_1" xmlns="http://www.w3.org/2000/svg" xmlns:xlink="http://www.w3.org/1999/xlink" x="0px" y="0px"
	 viewBox="0 0 512 512" style="enable-background:new 0 0 512 512;" xml:space="preserve">
<path style="fill:#7383BF;" d="M298.61,418.238c-4.712,0-8.535-3.824-8.535-8.535V8.535c0-4.712,3.824-8.535,8.535-8.535
	s8.535,3.824,8.535,8.535v401.167C307.145,414.414,303.321,418.238,298.61,418.238z"/>
<g>
	<path style="fill:#556080;" d="M174.854,512c-34.108,0-63.342-13.845-75.394-39.186c-7.238-15.21-7.614-32.691-1.093-50.53
		c9.986-27.339,35.439-52.51,68.087-67.345c55.651-25.265,116.202-13.699,134.988,25.794l0,0c7.238,15.21,7.614,32.691,1.093,50.53
		c-9.987,27.339-35.439,52.51-68.087,67.345C214.493,507.673,193.914,512,174.854,512z"/>
	<path style="fill:#556080;" d="M409.562,315.812c-4.43,0-8.151-3.406-8.501-7.861c-0.674-8.578-6.922-33.049-50.257-75.027
		c-60.047-58.169-60.73-126.786-60.73-129.671V8.535c0-4.712,3.824-8.535,8.535-8.535s8.535,3.824,8.535,8.535
		c0,0.623,0.888,64.468,55.54,117.414c56.667,54.892,56.138,89.861,55.421,96.511v84.817c0,4.584-3.619,8.348-8.203,8.527
		C409.793,315.812,409.682,315.812,409.562,315.812z"/>
</g>
<g>
</g>
<g>
</g>
<g>
</g>
<g>
</g>
<g>
</g>
<g>
</g>
<g>
</g>
<g>
</g>
<g>
</g>
<g>
</g>
<g>
</g>
<g>
</g>
<g>
</g>
<g>
</g>
<g>
</g>
</svg>
