<svg enable-background="new 0 0 64 64" height="512" viewBox="0 0 64 64" width="512" xmlns="http://www.w3.org/2000/svg"><path d="m16.67 40.293c-.507 1.323-1.994 1.986-3.319 1.479s-1.988-1.994-1.481-3.319c.509-1.325 2.651-3.698 3.975-3.191 1.327.507 1.334 3.703.825 5.031z" fill="#84dbff"/><path d="m13.87 38.454c.335-.874 1.38-2.198 2.433-2.857-.131-.151-.282-.268-.458-.334-1.323-.507-3.466 1.866-3.975 3.191-.507 1.326.157 2.813 1.481 3.319.647.248 1.331.213 1.923-.039-1.27-.536-1.901-1.982-1.404-3.28z" fill="#caf4ff"/><path d="m14.267 42.443c-.364 0-.734-.065-1.094-.203-1.581-.604-2.375-2.383-1.77-3.965.521-1.358 2.868-4.152 4.62-3.479.774.295 1.279 1.228 1.42 2.624.108 1.065-.015 2.292-.306 3.053-.468 1.219-1.635 1.97-2.87 1.97zm1.167-6.754c-.972 0-2.649 1.777-3.098 2.944-.408 1.066.127 2.266 1.193 2.673 1.065.407 2.264-.127 2.674-1.191.236-.618.337-1.685.245-2.595-.097-.958-.396-1.644-.782-1.791-.071-.027-.149-.04-.232-.04z" fill="#63312d"/><path d="m28.134 40.293c-.508 1.323-1.994 1.986-3.32 1.479-1.325-.507-1.987-1.994-1.48-3.319.508-1.325 2.65-3.698 3.975-3.191s1.334 3.703.825 5.031z" fill="#84dbff"/><path d="m25.333 38.454c.336-.874 1.38-2.198 2.433-2.857-.131-.151-.282-.268-.458-.334-1.323-.507-3.466 1.866-3.975 3.191-.507 1.326.157 2.813 1.482 3.319.647.248 1.331.213 1.923-.039-1.271-.536-1.901-1.982-1.405-3.28z" fill="#caf4ff"/><path d="m25.728 42.442c-.364 0-.733-.065-1.093-.202-.766-.293-1.371-.867-1.705-1.616s-.356-1.583-.063-2.349c.521-1.358 2.869-4.152 4.62-3.479.774.295 1.278 1.228 1.42 2.624.108 1.066-.015 2.293-.306 3.053-.469 1.219-1.637 1.969-2.873 1.969zm1.169-6.753c-.972 0-2.649 1.777-3.097 2.944-.197.516-.182 1.079.043 1.584s.633.892 1.149 1.089c1.065.404 2.265-.128 2.675-1.191.236-.617.337-1.684.245-2.595-.097-.958-.396-1.644-.782-1.791-.072-.027-.15-.04-.233-.04z" fill="#63312d"/><path d="m39.596 40.293c-.507 1.323-1.993 1.986-3.319 1.479s-1.989-1.994-1.481-3.319 2.65-3.698 3.975-3.191c1.326.507 1.334 3.703.825 5.031z" fill="#84dbff"/><path d="m36.796 38.454c.335-.874 1.38-2.198 2.433-2.857-.131-.151-.282-.268-.458-.334-1.323-.507-3.466 1.866-3.975 3.191-.507 1.326.157 2.813 1.481 3.319.647.248 1.331.213 1.923-.039-1.27-.536-1.9-1.982-1.404-3.28z" fill="#caf4ff"/><path d="m37.192 42.442c-.364 0-.734-.065-1.094-.202-.766-.293-1.372-.867-1.706-1.616s-.357-1.583-.063-2.349c.521-1.358 2.868-4.152 4.62-3.479.774.295 1.278 1.228 1.42 2.624.108 1.066-.015 2.293-.306 3.053-.468 1.219-1.635 1.969-2.871 1.969zm1.168-6.753c-.972 0-2.649 1.777-3.097 2.944-.198.516-.182 1.079.043 1.584s.634.892 1.15 1.089c1.064.409 2.265-.126 2.673-1.191.236-.617.337-1.684.245-2.594-.097-.958-.396-1.644-.782-1.791-.071-.028-.149-.041-.232-.041z" fill="#63312d"/><path d="m51.06 40.293c-.509 1.323-1.996 1.986-3.32 1.479-1.325-.507-1.987-1.994-1.48-3.319s2.65-3.698 3.975-3.191c1.326.507 1.332 3.703.825 5.031z" fill="#84dbff"/><path d="m48.259 38.454c.335-.874 1.38-2.198 2.433-2.857-.131-.151-.282-.268-.458-.334-1.323-.507-3.466 1.866-3.975 3.191-.507 1.326.157 2.813 1.481 3.319.647.248 1.331.213 1.923-.039-1.269-.536-1.9-1.982-1.404-3.28z" fill="#caf4ff"/><path d="m48.654 42.443c-.364 0-.733-.065-1.093-.203-1.58-.604-2.374-2.383-1.769-3.965.52-1.358 2.866-4.153 4.621-3.479 1.751.669 1.633 4.316 1.114 5.676v.001c-.469 1.219-1.637 1.97-2.873 1.97zm1.169-6.754c-.973 0-2.65 1.776-3.097 2.943-.408 1.067.127 2.266 1.192 2.674 1.064.408 2.265-.127 2.675-1.192.483-1.269.369-4.038-.538-4.384-.071-.028-.149-.041-.232-.041z" fill="#63312d"/><path d="m10.735 49.8c-.508 1.324-1.995 1.988-3.32 1.48-1.325-.507-1.987-1.994-1.481-3.319.509-1.325 2.651-3.698 3.975-3.191 1.326.507 1.333 3.704.826 5.03z" fill="#84dbff"/><path d="m7.934 47.962c.335-.873 1.38-2.198 2.433-2.857-.131-.151-.282-.268-.458-.334-1.323-.507-3.466 1.866-3.975 3.191-.507 1.326.157 2.813 1.481 3.319.647.248 1.331.212 1.923-.039-1.27-.535-1.9-1.981-1.404-3.28z" fill="#caf4ff"/><path d="m8.33 51.951c-.364 0-.734-.065-1.094-.204-1.579-.604-2.373-2.383-1.77-3.964.522-1.359 2.868-4.151 4.621-3.479.774.295 1.278 1.227 1.42 2.624.108 1.066-.015 2.292-.305 3.052-.469 1.22-1.637 1.971-2.872 1.971zm1.168-6.754c-.972 0-2.649 1.776-3.098 2.943-.407 1.066.128 2.265 1.193 2.673 1.065.407 2.265-.126 2.675-1.192.236-.617.336-1.684.244-2.593-.097-.958-.396-1.644-.782-1.791-.072-.027-.15-.04-.232-.04z" fill="#63312d"/><path d="m22.197 49.8c-.508 1.324-1.994 1.988-3.32 1.48-1.324-.507-1.987-1.994-1.48-3.319.508-1.325 2.649-3.698 3.975-3.191s1.333 3.704.825 5.03z" fill="#84dbff"/><path d="m19.397 47.962c.335-.873 1.38-2.198 2.433-2.857-.131-.151-.282-.268-.458-.334-1.323-.507-3.466 1.866-3.975 3.191-.507 1.326.157 2.813 1.481 3.319.647.248 1.331.212 1.923-.039-1.27-.535-1.9-1.981-1.404-3.28z" fill="#caf4ff"/><path d="m19.792 51.951c-.364 0-.734-.065-1.094-.203-1.58-.605-2.373-2.384-1.768-3.965.521-1.359 2.864-4.151 4.62-3.479.774.295 1.278 1.227 1.419 2.624.108 1.066-.015 2.292-.305 3.052-.468 1.22-1.636 1.971-2.872 1.971zm1.169-6.754c-.972 0-2.649 1.776-3.097 2.943-.408 1.065.127 2.265 1.192 2.673 1.065.407 2.265-.127 2.675-1.192.236-.617.336-1.684.244-2.593-.097-.958-.396-1.644-.781-1.791-.072-.027-.15-.04-.233-.04z" fill="#63312d"/><path d="m33.661 49.8c-.509 1.324-1.996 1.988-3.32 1.48-1.325-.507-1.987-1.994-1.481-3.319.508-1.325 2.651-3.698 3.975-3.191 1.325.507 1.332 3.704.826 5.03z" fill="#84dbff"/><path d="m30.86 47.962c.335-.873 1.38-2.198 2.433-2.857-.131-.151-.282-.268-.458-.334-1.323-.507-3.466 1.866-3.975 3.191-.507 1.326.157 2.813 1.481 3.319.647.248 1.331.212 1.923-.039-1.27-.535-1.9-1.981-1.404-3.28z" fill="#caf4ff"/><path d="m31.256 51.951c-.364 0-.734-.065-1.095-.204-1.579-.604-2.373-2.383-1.77-3.964.522-1.359 2.875-4.151 4.621-3.479 1.751.668 1.634 4.314 1.116 5.675v.001c-.469 1.22-1.637 1.971-2.872 1.971zm1.167-6.754c-.972 0-2.649 1.776-3.097 2.943-.407 1.066.128 2.266 1.193 2.673s2.265-.127 2.675-1.193c.483-1.269.368-4.037-.539-4.383-.071-.027-.149-.04-.232-.04z" fill="#63312d"/><path d="m45.124 49.8c-.509 1.324-1.996 1.988-3.319 1.48-1.326-.507-1.988-1.994-1.481-3.319.509-1.325 2.65-3.698 3.975-3.191s1.331 3.704.825 5.03z" fill="#84dbff"/><path d="m42.323 47.962c.335-.873 1.38-2.198 2.433-2.857-.131-.151-.282-.268-.458-.334-1.323-.507-3.466 1.866-3.975 3.191-.507 1.326.157 2.813 1.481 3.319.647.248 1.331.212 1.923-.039-1.27-.535-1.9-1.981-1.404-3.28z" fill="#caf4ff"/><path d="m42.719 51.951c-.364 0-.734-.065-1.094-.204-1.58-.604-2.374-2.383-1.769-3.965.521-1.358 2.867-4.153 4.62-3.479.774.295 1.278 1.227 1.419 2.624.108 1.066-.015 2.292-.305 3.051v.001c-.468 1.221-1.636 1.972-2.871 1.972zm1.168-6.754c-.972 0-2.649 1.777-3.098 2.943-.408 1.066.127 2.266 1.193 2.673 1.064.407 2.263-.126 2.673-1.192.236-.617.336-1.684.244-2.594-.097-.958-.396-1.644-.781-1.791-.07-.026-.148-.039-.231-.039z" fill="#63312d"/><path d="m56.587 49.8c-.508 1.324-1.995 1.988-3.32 1.48-1.325-.507-1.989-1.994-1.481-3.319.509-1.325 2.651-3.698 3.975-3.191 1.325.507 1.333 3.704.826 5.03z" fill="#84dbff"/><path d="m53.785 47.962c.335-.873 1.38-2.198 2.433-2.857-.131-.151-.282-.268-.458-.334-1.323-.507-3.466 1.866-3.975 3.191-.507 1.326.157 2.813 1.481 3.319.647.248 1.331.212 1.923-.039-1.27-.535-1.9-1.981-1.404-3.28z" fill="#caf4ff"/><path d="m54.182 51.951c-.364 0-.734-.065-1.094-.204-1.581-.605-2.375-2.384-1.77-3.965.522-1.359 2.867-4.15 4.621-3.479.773.295 1.278 1.227 1.419 2.624.108 1.066-.014 2.292-.305 3.052-.468 1.221-1.636 1.972-2.871 1.972zm1.167-6.754c-.971 0-2.649 1.776-3.097 2.943-.408 1.065.127 2.265 1.193 2.673 1.064.407 2.265-.126 2.675-1.192.236-.617.336-1.683.244-2.593-.097-.958-.397-1.644-.782-1.791-.072-.027-.15-.04-.233-.04z" fill="#63312d"/><path d="m16.67 59.131c-.507 1.324-1.994 1.988-3.319 1.481-1.325-.508-1.988-1.994-1.481-3.32.509-1.326 2.651-3.698 3.975-3.191 1.327.506 1.334 3.703.825 5.03z" fill="#84dbff"/><path d="m13.87 57.293c.335-.874 1.38-2.198 2.433-2.857-.131-.151-.282-.268-.458-.334-1.323-.507-3.466 1.866-3.975 3.191-.507 1.326.157 2.813 1.481 3.319.647.248 1.331.212 1.923-.039-1.27-.535-1.901-1.982-1.404-3.28z" fill="#caf4ff"/><path d="m14.266 61.282c-.364 0-.734-.065-1.094-.203-1.58-.605-2.374-2.384-1.77-3.965.521-1.359 2.863-4.15 4.621-3.479.445.17.798.54 1.048 1.099.577 1.292.498 3.449.065 4.577-.466 1.219-1.634 1.971-2.87 1.971zm1.168-6.754c-.972 0-2.649 1.776-3.097 2.943-.407 1.065.128 2.265 1.194 2.674 1.062.406 2.265-.127 2.673-1.193.354-.924.412-2.79-.045-3.811-.094-.212-.257-.483-.493-.573-.071-.027-.149-.04-.232-.04z" fill="#63312d"/><path d="m28.134 59.131c-.508 1.324-1.994 1.988-3.32 1.481-1.325-.508-1.987-1.994-1.48-3.32.508-1.326 2.65-3.698 3.975-3.191 1.325.506 1.334 3.703.825 5.03z" fill="#84dbff"/><path d="m25.333 57.293c.336-.874 1.38-2.198 2.433-2.857-.131-.151-.282-.268-.458-.334-1.323-.507-3.466 1.866-3.975 3.191-.507 1.326.157 2.813 1.482 3.319.647.248 1.331.212 1.923-.039-1.271-.535-1.901-1.982-1.405-3.28z" fill="#caf4ff"/><path d="m25.728 61.281c-.364 0-.733-.065-1.093-.202-1.58-.606-2.373-2.385-1.768-3.966.521-1.358 2.869-4.149 4.62-3.479.446.17.799.54 1.048 1.099.577 1.292.498 3.449.065 4.577-.468 1.22-1.636 1.971-2.872 1.971zm1.169-6.753c-.972 0-2.65 1.776-3.097 2.943-.408 1.066.127 2.266 1.192 2.674 1.064.405 2.266-.127 2.674-1.193.354-.923.412-2.789-.045-3.811-.094-.211-.257-.483-.492-.573-.071-.027-.149-.04-.232-.04z" fill="#63312d"/><path d="m39.596 59.131c-.507 1.324-1.993 1.988-3.319 1.481-1.326-.508-1.989-1.994-1.481-3.32s2.65-3.698 3.975-3.191c1.326.506 1.334 3.703.825 5.03z" fill="#84dbff"/><path d="m36.796 57.293c.335-.874 1.38-2.198 2.433-2.857-.131-.151-.282-.268-.458-.334-1.323-.507-3.466 1.866-3.975 3.191-.507 1.326.157 2.813 1.481 3.319.647.248 1.331.212 1.923-.039-1.27-.535-1.9-1.982-1.404-3.28z" fill="#caf4ff"/><path d="m37.192 61.281c-.364 0-.733-.065-1.093-.202-1.581-.605-2.375-2.385-1.77-3.966.521-1.358 2.868-4.149 4.62-3.479.446.17.799.54 1.048 1.099.577 1.292.498 3.449.065 4.577-.467 1.22-1.634 1.971-2.87 1.971zm1.168-6.753c-.972 0-2.65 1.776-3.097 2.943-.408 1.066.127 2.266 1.193 2.674 1.066.404 2.265-.127 2.673-1.193.354-.923.412-2.789-.045-3.811-.094-.211-.257-.483-.492-.573-.071-.027-.149-.04-.232-.04z" fill="#63312d"/><path d="m51.06 59.131c-.509 1.324-1.996 1.988-3.32 1.481-1.325-.508-1.987-1.994-1.48-3.32s2.65-3.698 3.975-3.191c1.326.506 1.332 3.703.825 5.03z" fill="#84dbff"/><path d="m48.259 57.293c.335-.874 1.38-2.198 2.433-2.857-.131-.151-.282-.268-.458-.334-1.323-.507-3.466 1.866-3.975 3.191-.507 1.326.157 2.813 1.481 3.319.647.248 1.331.212 1.923-.039-1.269-.535-1.9-1.982-1.404-3.28z" fill="#caf4ff"/><path d="m48.654 61.281c-.364 0-.734-.065-1.093-.203-1.58-.605-2.373-2.384-1.769-3.965.29-.758 1.018-1.752 1.811-2.474 1.039-.944 2.039-1.301 2.81-1.005.773.295 1.278 1.227 1.419 2.624.108 1.066-.015 2.292-.305 3.051v.001c-.469 1.22-1.637 1.971-2.873 1.971zm1.189-6.749c-.397 0-.971.306-1.566.847-.677.616-1.314 1.476-1.55 2.092-.408 1.066.127 2.266 1.192 2.674 1.065.406 2.265-.127 2.674-1.192.236-.617.336-1.684.244-2.594-.097-.958-.396-1.644-.781-1.791-.063-.024-.135-.036-.213-.036z" fill="#63312d"/><path d="m52.263 14.922h-2.329c.005-.13.014-.26.014-.392 0-6.247-5.065-11.312-11.313-11.312h-6.135v1.816c-3.069 1.989-5.117 5.42-5.172 9.336-.851-1.129-2.198-1.861-3.72-1.861h-6.038v5.25c-.37-.06-.747-.099-1.134-.099-3.96 0-7.172 3.211-7.172 7.172s3.211 7.172 7.172 7.172h35.827c4.716 0 8.541-3.824 8.541-8.541s-3.825-8.541-8.541-8.541z" fill="#52b8d9"/><path d="m52.263 32.504h-35.827c-4.23 0-7.672-3.441-7.672-7.672s3.441-7.672 7.672-7.672c.206 0 .416.01.634.03v-4.681c0-.276.224-.5.5-.5h6.039c1.226 0 2.378.424 3.294 1.19.384-3.403 2.231-6.481 5.097-8.433v-1.548c0-.276.224-.5.5-.5h6.136c6.477 0 11.753 5.24 11.812 11.704h1.815c4.985 0 9.041 4.056 9.041 9.041s-4.055 9.041-9.041 9.041zm-35.827-14.344c-3.679 0-6.672 2.993-6.672 6.672s2.993 6.672 6.672 6.672h35.827c4.434 0 8.041-3.607 8.041-8.041s-3.607-8.041-8.041-8.041h-2.329c-.136 0-.267-.056-.361-.154s-.145-.23-.139-.367l.005-.113c.004-.085.008-.171.008-.258 0-5.962-4.851-10.812-10.813-10.812h-5.634v1.316c0 .169-.086.328-.228.419-3.045 1.973-4.894 5.309-4.944 8.924-.003.214-.142.402-.345.468-.202.067-.426-.003-.555-.174-.796-1.056-2.007-1.662-3.321-1.662h-5.537v4.75c0 .146-.064.286-.176.381s-.262.136-.404.113c-.382-.063-.727-.093-1.054-.093z" fill="#63312d"/><path d="m46.263 14.922c-.813 0-1.596.121-2.34.333.015-.24.026-.48.026-.724 0-6.247-5.065-11.312-11.313-11.312-6.193 0-11.222 4.979-11.308 11.152-.851-1.129-2.198-1.861-3.72-1.861-2.575 0-4.662 2.087-4.662 4.662 0 .34.039.67.107.989-.812-.319-1.693-.5-2.618-.5-3.96 0-7.172 3.211-7.172 7.172s3.211 7.172 7.172 7.172h35.827c4.716 0 8.541-3.824 8.541-8.541.001-4.718-3.824-8.542-8.54-8.542z" fill="#84dbff"/><path d="m5.264 26.832c0-3.961 3.211-7.172 7.172-7.172.925 0 1.806.181 2.618.5-.069-.319-.107-.649-.107-.989 0-2.575 2.087-4.662 4.662-4.662 1.522 0 2.869.732 3.72 1.861.086-6.173 5.114-11.152 11.308-11.152 2.614 0 5.013.895 6.929 2.384-2.069-2.663-5.295-4.384-8.929-4.384-6.193 0-11.222 4.979-11.308 11.152-.851-1.129-2.198-1.861-3.72-1.861-2.575 0-4.662 2.087-4.662 4.662 0 .34.039.67.107.989-.812-.319-1.693-.5-2.618-.5-3.96 0-7.172 3.211-7.172 7.172 0 2.492 1.272 4.685 3.201 5.971-.757-1.137-1.201-2.502-1.201-3.971z" fill="#caf4ff"/><path d="m46.263 32.504h-35.827c-4.23 0-7.672-3.441-7.672-7.672s3.441-7.672 7.672-7.672c.683 0 1.358.092 2.017.273-.004-.088-.007-.176-.007-.263 0-2.846 2.316-5.162 5.162-5.162 1.226 0 2.378.424 3.294 1.19.668-5.875 5.705-10.48 11.734-10.48 6.514 0 11.813 5.299 11.813 11.812v.081c.604-.125 1.212-.189 1.815-.189 4.985 0 9.041 4.056 9.041 9.041s-4.056 9.041-9.042 9.041zm-35.827-14.344c-3.679 0-6.672 2.993-6.672 6.672s2.993 6.672 6.672 6.672h35.827c4.434 0 8.041-3.607 8.041-8.041s-3.607-8.041-8.041-8.041c-.731 0-1.473.105-2.204.313-.156.043-.323.011-.451-.092-.126-.102-.195-.259-.185-.421.015-.229.025-.459.025-.692 0-5.962-4.851-10.812-10.813-10.812-5.877 0-10.726 4.782-10.808 10.659-.003.214-.142.402-.345.468-.202.067-.426-.003-.555-.174-.796-1.056-2.007-1.662-3.321-1.662-2.295 0-4.162 1.867-4.162 4.162 0 .291.032.588.096.884.039.18-.024.367-.165.486-.14.12-.334.152-.507.084-.783-.308-1.601-.465-2.432-.465z" fill="#63312d"/></svg>