<svg height="512" viewBox="0 0 128 128" width="512" xmlns="http://www.w3.org/2000/svg" xmlns:xlink="http://www.w3.org/1999/xlink"><linearGradient id="a" gradientUnits="userSpaceOnUse" x1="113.349" x2="11.824" y1="110.339" y2="8.814"><stop offset="0" stop-color="#0d70b2"/><stop offset="1" stop-color="#00ddc1"/></linearGradient><path d="m126.25 25.266a1.749 1.749 0 0 0 -1.75 1.75v63.994a2.253 2.253 0 0 1 -2.25 2.25h-116.5a2.253 2.253 0 0 1 -2.25-2.25v-67.994a2.253 2.253 0 0 1 2.25-2.25h112.5a1.75 1.75 0 0 0 0-3.5h-112.5a5.756 5.756 0 0 0 -5.75 5.75v67.994a5.757 5.757 0 0 0 5.75 5.75h9.883l-3.068 4.44a6.079 6.079 0 0 0 10 6.912l7.847-11.352h67.176l7.844 11.351a6.079 6.079 0 0 0 10-6.912l-3.068-4.439h9.883a5.757 5.757 0 0 0 5.753-5.75v-63.994a1.749 1.749 0 0 0 -1.75-1.75zm-106.561 80.856a2.582 2.582 0 0 1 -2.122 1.112 2.58 2.58 0 0 1 -2.123-4.046l4.443-6.428h6.271zm92.867-2.934a2.58 2.58 0 0 1 -2.123 4.046 2.585 2.585 0 0 1 -2.123-1.112l-6.468-9.362h6.271zm-72.931-17.928a1.75 1.75 0 0 1 0 3.5h-6.013a1.75 1.75 0 0 1 0-3.5zm10.5 1.75a1.749 1.749 0 0 1 1.75-1.75h64.625v-56.494h-105v56.494h9.862a1.75 1.75 0 0 1 0 3.5h-11.612a1.75 1.75 0 0 1 -1.75-1.75v-59.994a1.749 1.749 0 0 1 1.75-1.75h108.5a1.749 1.749 0 0 1 1.75 1.75v59.994a1.75 1.75 0 0 1 -1.75 1.75h-66.375a1.75 1.75 0 0 1 -1.75-1.75zm-1.453-19.156v-19.932h-7.3a1.75 1.75 0 0 1 0-3.5h18.097a1.75 1.75 0 0 1 0 3.5h-7.3v19.932a1.75 1.75 0 0 1 -3.5 0zm27.291.673-9.047-21.681a1.75 1.75 0 1 1 3.23-1.348l7.432 17.811 7.432-17.809a1.75 1.75 0 1 1 3.23 1.348l-9.047 21.679a1.749 1.749 0 0 1 -3.23 0z" fill="url(#a)"/></svg>